<?xml version="1.0" encoding="UTF-8"?>
<svg id="Layer_1" data-name="Layer 1" xmlns="http://www.w3.org/2000/svg" viewBox="0 0 711 498">
  <defs>
    <style>
      .cls-1 {
        fill: #258d36;
      }
    </style>
  </defs>
  <path class="cls-1" d="M503,82c-114.87,0-208,93.13-208,208,0,98.22,68.1,180.48,159.64,202.29-4.74-1.13-9.43-2.39-14.04-3.83v-47.66s-7.8,2.6-18.2,2.6c-29.1,0-41.18-25.96-44.2-39-1.83-7.94-6.62-15.47-11.75-20.07-6.14-5.47-9.01-5.49-9.05-7.36-.08-3.93,5.26-3.77,7.8-3.77,13,0,22.86,13.83,27.43,20.98,11.34,17.66,23.5,20.62,29.77,20.62,7.8,0,14.54-1.17,19.18-3.41,2.14-15.1,8.86-28.56,19.82-38.19-48.78-9.75-83.2-37.73-83.2-83.2,0-23.42,9.4-44.95,25.06-62.34-1.6-4.54-4.26-13.71-4.26-28.66,0-9.88,.69-22.01,5.2-33.8,0,0,29.66,.21,57.64,26.7,12.91-3.76,26.73-5.9,41.16-5.9s28.25,2.14,41.16,5.9c27.98-26.5,57.64-26.7,57.64-26.7,4.54,11.79,5.2,23.92,5.2,33.8,0,16.12-2.14,25.52-3.46,29.58,15.18,17.22,24.26,38.42,24.26,61.42,0,45.47-34.42,73.45-83.2,83.2,13.02,11.44,20.8,28.1,20.8,46.8v68.46c-4.61,1.45-9.3,2.7-14.04,3.83,91.54-21.81,159.64-104.07,159.64-202.29,0-114.87-93.13-208-208-208Zm14.5,415.44c-4.79,.34-9.62,.56-14.5,.56,4.88,0,9.7-.23,14.5-.56Zm31.78-4.67c-9.31,2.12-18.86,3.61-28.6,4.43,9.74-.82,19.29-2.32,28.6-4.43Zm-46.29,5.23c-4.88,0-9.71-.22-14.5-.56,4.8,.33,9.62,.56,14.5,.56Zm-17.7-.8c-9.74-.82-19.29-2.31-28.59-4.43,9.31,2.11,18.86,3.61,28.59,4.43Z"/>
</svg>